<svg version="1.0" xmlns="http://www.w3.org/2000/svg" viewBox="0 0 571.000000 1280.000000"
 preserveAspectRatio="xMidYMid meet">
  <g transform="translate(0.000000,1280.000000) scale(0.100000,-0.100000)"
  fill="#000000" stroke="none">
    <path d="M2836 12109 c-168 -168 -173 -175 -78 -94 56 48 102 91 102 96 0 5 6
    9 14 9 8 0 16 3 18 8 2 4 35 35 74 69 64 56 88 93 60 93 -5 0 -91 -82 -190
    -181z"/>
    <path d="M2849 12063 c-229 -233 -306 -318 -403 -447 -136 -182 -229 -361
    -300 -578 -112 -342 -153 -671 -143 -1153 7 -358 32 -567 127 -1087 l40 -217
    -211 -253 c-450 -540 -660 -839 -833 -1186 -457 -917 -509 -1914 -144 -2761
    27 -64 51 -128 54 -142 5 -39 65 -166 129 -274 163 -278 468 -564 827 -777
    333 -197 614 -291 951 -318 78 -7 149 -14 157 -18 8 -3 19 -4 23 -3 5 1 21 -6
    36 -15 26 -15 29 -23 35 -98 21 -279 -12 -691 -74 -916 -26 -94 -104 -258
    -167 -352 -52 -78 -201 -240 -267 -290 -23 -17 -13 -5 22 27 35 31 61 60 58
    62 -3 3 2 20 11 37 13 24 -1 15 -61 -41 -138 -129 -305 -223 -484 -273 -93
    -26 -95 -27 -58 -34 21 -4 52 -5 69 -2 29 6 30 5 8 -4 -38 -17 -188 -40 -256
    -40 -134 0 -290 41 -360 95 -29 21 -31 27 -28 80 5 106 48 125 280 124 207 -1
    280 25 381 136 102 111 127 206 119 443 -6 191 -20 246 -80 306 -23 23 -59 65
    -80 93 -101 137 -244 231 -387 254 -87 13 -230 7 -310 -15 -64 -17 -81 -13
    -21 5 43 13 64 39 31 39 -28 0 -140 -42 -191 -72 -24 -14 -64 -44 -89 -66 -43
    -39 -44 -41 -18 -38 15 1 38 11 50 22 13 10 5 -1 -17 -26 -148 -164 -203 -323
    -212 -602 -7 -223 20 -407 78 -520 11 -22 22 -55 24 -72 6 -69 63 -157 174
    -267 125 -124 214 -185 416 -285 171 -84 286 -120 431 -135 495 -53 1017 299
    1265 851 146 326 205 713 191 1256 -3 136 -1 202 8 230 32 101 102 159 281
    233 557 229 839 472 1058 910 100 199 168 408 207 631 21 126 30 536 15 696
    -23 240 -94 510 -176 675 -35 70 -162 269 -172 269 -2 0 -1 -6 3 -12 17 -31
    -17 13 -64 82 -159 234 -384 431 -632 555 -229 114 -375 149 -630 148 -105 0
    -223 -7 -295 -17 -124 -17 -157 -19 -115 -7 14 4 26 14 28 22 2 13 -8 14 -70
    8 -40 -4 -78 -8 -85 -8 -6 -1 -20 -14 -29 -31 -29 -49 -44 -45 -28 7 13 44 12
    52 -42 247 -30 110 -58 233 -61 271 -8 106 -19 89 309 480 457 545 664 901
    803 1385 164 569 148 1278 -40 1845 -63 189 -182 416 -254 485 -15 14 -46 53
    -70 88 -77 113 -185 235 -355 397 -92 88 -170 161 -174 163 -4 1 -100 -91
    -213 -205z m590 -1120 c20 -16 39 -27 42 -26 10 3 48 -148 64 -254 37 -247 2
    -488 -105 -718 -71 -153 -230 -369 -473 -641 -121 -135 -258 -282 -226 -240 9
    12 25 39 34 61 10 22 25 49 34 59 9 11 -39 -36 -107 -103 -67 -68 -126 -130
    -131 -139 -6 -10 -9 0 -9 34 0 27 -8 108 -17 179 -35 280 -35 562 0 736 41
    198 140 426 263 599 86 121 241 278 362 367 164 121 206 134 269 86z m-925
    -3925 c31 -21 37 -33 62 -127 l28 -104 -23 -18 c-20 -17 -24 -17 -38 -4 -19
    19 -18 19 -189 -131 -159 -140 -255 -245 -320 -349 -13 -21 5 -9 60 40 l79 70
    -57 -75 c-141 -188 -221 -435 -233 -720 -9 -222 31 -440 110 -597 13 -26 22
    -53 20 -60 -7 -18 62 -158 111 -226 63 -89 221 -238 285 -270 56 -28 118 -35
    150 -17 26 13 62 105 68 170 6 67 -8 102 -63 149 -31 28 -157 186 -159 201 -1
    3 -22 68 -47 145 -67 202 -67 279 -2 454 52 140 193 320 291 370 44 22 62 20
    102 -11 13 -10 27 -16 31 -13 22 13 179 -670 249 -1085 71 -415 97 -675 108
    -1064 l6 -249 -34 6 c-20 4 -29 3 -21 -2 23 -14 -263 -22 -418 -12 -292 21
    -475 95 -698 283 -45 39 -114 105 -154 147 -81 87 -190 226 -182 234 3 3 -15
    46 -40 96 -25 50 -69 147 -96 217 -149 371 -164 590 -69 973 41 166 79 271
    153 426 87 182 168 304 377 575 100 129 229 298 286 375 173 231 197 249 267
    203z m-84 -371 c0 -2 -12 -14 -27 -28 l-28 -24 24 28 c23 25 31 32 31 24z
    m-100 -90 c0 -1 -37 -38 -82 -82 l-83 -80 80 83 c74 76 85 87 85 79z m1238
    -443 c195 -29 318 -79 434 -177 51 -42 181 -202 260 -317 25 -38 48 -66 51
    -64 3 3 21 -46 41 -108 110 -344 97 -691 -39 -1053 -86 -230 -193 -395 -333
    -511 l-57 -48 43 45 c23 25 42 52 42 60 0 8 6 21 13 29 6 7 -24 -17 -68 -54
    -125 -105 -351 -245 -397 -246 -9 0 -23 -6 -30 -13 -11 -11 -13 0 -16 62 -4
    123 -41 553 -63 731 -39 323 -107 711 -211 1195 -33 154 -60 306 -61 337 -2
    50 1 61 24 84 61 61 178 76 367 48z m352 -2278 c0 -2 -8 -10 -17 -17 -16 -13
    -17 -12 -4 4 13 16 21 21 21 13z m-1280 -2690 c0 -2 -8 -10 -17 -17 -16 -13
    -17 -12 -4 4 13 16 21 21 21 13z"/>
  </g>
</svg>
